<svg width="176" height="25" viewBox="0 0 176 25" fill="none" xmlns="http://www.w3.org/2000/svg">
<path d="M175.173 2.09L169.113 23H166.053L161.193 6.17L156.153 23L153.123 23.03L147.273 2.09H150.183L154.743 19.82L159.783 2.09H162.843L167.643 19.76L172.233 2.09H175.173Z" fill="white"/>
<path d="M134.789 23.21C132.849 23.21 131.079 22.76 129.479 21.86C127.879 20.94 126.609 19.67 125.669 18.05C124.749 16.41 124.289 14.57 124.289 12.53C124.289 10.49 124.749 8.66 125.669 7.04C126.609 5.4 127.879 4.13 129.479 3.23C131.079 2.31 132.849 1.85 134.789 1.85C136.749 1.85 138.529 2.31 140.129 3.23C141.729 4.13 142.989 5.39 143.909 7.01C144.829 8.63 145.289 10.47 145.289 12.53C145.289 14.59 144.829 16.43 143.909 18.05C142.989 19.67 141.729 20.94 140.129 21.86C138.529 22.76 136.749 23.21 134.789 23.21ZM134.789 20.84C136.249 20.84 137.559 20.5 138.719 19.82C139.899 19.14 140.819 18.17 141.479 16.91C142.159 15.65 142.499 14.19 142.499 12.53C142.499 10.85 142.159 9.39 141.479 8.15C140.819 6.89 139.909 5.92 138.749 5.24C137.589 4.56 136.269 4.22 134.789 4.22C133.309 4.22 131.989 4.56 130.829 5.24C129.669 5.92 128.749 6.89 128.069 8.15C127.409 9.39 127.079 10.85 127.079 12.53C127.079 14.19 127.409 15.65 128.069 16.91C128.749 18.17 129.669 19.14 130.829 19.82C132.009 20.5 133.329 20.84 134.789 20.84Z" fill="white"/>
<path d="M115.09 20.78H122.41V23H112.36V2.09H115.09V20.78Z" fill="white"/>
<path d="M109.062 2.09V4.31H99.9725V11.36H107.352V13.58H99.9725V23H97.2425V2.09H109.062Z" fill="white"/>
<path d="M85.9925 23.21C83.4525 23.21 81.3525 22.62 79.6925 21.44C78.0525 20.24 77.1625 18.49 77.0225 16.19H84.1025C84.2025 17.41 84.7425 18.02 85.7225 18.02C86.0825 18.02 86.3825 17.94 86.6225 17.78C86.8825 17.6 87.0125 17.33 87.0125 16.97C87.0125 16.47 86.7425 16.07 86.2025 15.77C85.6625 15.45 84.8225 15.09 83.6825 14.69C82.3225 14.21 81.1925 13.74 80.2925 13.28C79.4125 12.82 78.6525 12.15 78.0125 11.27C77.3725 10.39 77.0625 9.26 77.0825 7.88C77.0825 6.5 77.4325 5.33 78.1325 4.37C78.8525 3.39 79.8225 2.65 81.0425 2.15C82.2825 1.65 83.6725 1.4 85.2125 1.4C87.8125 1.4 89.8725 2 91.3925 3.2C92.9325 4.4 93.7425 6.09 93.8225 8.27H86.6525C86.6325 7.67 86.4825 7.24 86.2025 6.98C85.9225 6.72 85.5825 6.59 85.1825 6.59C84.9025 6.59 84.6725 6.69 84.4925 6.89C84.3125 7.07 84.2225 7.33 84.2225 7.67C84.2225 8.15 84.4825 8.55 85.0025 8.87C85.5425 9.17 86.3925 9.54 87.5525 9.98C88.8925 10.48 89.9925 10.96 90.8525 11.42C91.7325 11.88 92.4925 12.52 93.1325 13.34C93.7725 14.16 94.0925 15.19 94.0925 16.43C94.0925 17.73 93.7725 18.9 93.1325 19.94C92.4925 20.96 91.5625 21.76 90.3425 22.34C89.1225 22.92 87.6725 23.21 85.9925 23.21Z" fill="white"/>
<path d="M62.63 1.76V13.73C62.63 14.71 62.84 15.49 63.26 16.07C63.7 16.63 64.4 16.91 65.36 16.91C66.32 16.91 67.03 16.63 67.49 16.07C67.95 15.49 68.18 14.71 68.18 13.73V1.76H74.81V13.73C74.81 15.75 74.39 17.48 73.55 18.92C72.71 20.34 71.56 21.41 70.1 22.13C68.64 22.85 67.01 23.21 65.21 23.21C63.41 23.21 61.81 22.85 60.41 22.13C59.03 21.41 57.95 20.34 57.17 18.92C56.39 17.5 56 15.77 56 13.73V1.76H62.63Z" fill="white"/>
<path d="M33.028 13.9193C32.6995 11.8452 32.8218 9.93248 33.3949 8.18127C33.9878 6.42693 34.9941 4.98171 36.4138 3.84563C37.8305 2.68979 39.5956 1.94448 41.7093 1.60971C43.5266 1.32187 45.2012 1.41101 46.7329 1.87713C48.2813 2.32036 49.5986 3.09383 50.6846 4.19752C51.7904 5.29809 52.6228 6.65457 53.1819 8.26695L46.2484 9.36512C45.8228 8.7238 45.284 8.26241 44.6319 7.98095C43.9965 7.6766 43.3035 7.58388 42.5528 7.70277C41.4466 7.87797 40.6333 8.43203 40.1128 9.36493C39.6121 10.2947 39.4728 11.4609 39.6949 12.8634C39.9171 14.2659 40.4099 15.3319 41.1734 16.0615C41.9567 16.7879 42.9014 17.0635 44.0077 16.8883C44.7583 16.7694 45.3903 16.4769 45.9037 16.0109C46.4338 15.5219 46.8021 14.9067 47.0086 14.1653L53.9422 13.0671C53.9087 14.7734 53.5362 16.3207 52.8246 17.7091C52.1328 19.0944 51.1206 20.2469 49.7881 21.1667C48.4722 22.0636 46.9056 22.6559 45.0882 22.9438C42.9746 23.2786 41.0671 23.1251 39.3658 22.4833C37.6613 21.8218 36.2561 20.7484 35.1501 19.2631C34.0639 17.7747 33.3565 15.9935 33.028 13.9193Z" fill="white"/>
<path d="M39 11.9432C39 18.0183 34.0751 22.9432 28 22.9432C21.9249 22.9432 17 18.0183 17 11.9432C17 5.86803 21.9249 0.943161 28 0.943161C34.0751 0.943161 39 5.86803 39 11.9432Z" fill="white"/>
<path d="M15.5 1.76V7.04H7.16V9.98H13.16V14.99H7.16V23H0.5V1.76H15.5Z" fill="white"/>
</svg>
